<?xml version="1.0" encoding="utf-8"?>
<!-- Generator: Adobe Illustrator 25.4.1, SVG Export Plug-In . SVG Version: 6.00 Build 0)  -->
<svg version="1.0" id="레이어_1" xmlns="http://www.w3.org/2000/svg" xmlns:xlink="http://www.w3.org/1999/xlink" x="0px"
	 y="0px" viewBox="0 0 307.3 100.2" style="enable-background:new 0 0 307.3 100.2;" xml:space="preserve">
<g>
	<path d="M23,100.2c-5,0-9.2-1.1-12.5-3.3c-3.3-2.2-5.9-5.5-7.6-10c-1.7-4.5-2.7-10.1-3-17.1l14.2-2.9c0.1,4,0.5,7.4,1.1,10.1
		c0.6,2.7,1.4,4.7,2.6,6c1.2,1.3,2.6,2,4.4,2c2.1,0,3.6-0.8,4.4-2.4c0.8-1.6,1.2-3.5,1.2-5.5c0-4.1-0.8-7.5-2.5-10.3
		c-1.6-2.8-3.8-5.6-6.5-8.4l-8.4-8.8c-3-3.1-5.5-6.5-7.4-10.4C1.2,35.3,0.2,30.6,0.2,25c0-8,2-14.2,5.9-18.5C10,2.2,15.3,0,22.1,0
		c4.1,0,7.4,0.8,10,2.4c2.6,1.6,4.6,3.8,6.1,6.5c1.4,2.7,2.4,5.6,3,8.8c0.6,3.2,0.9,6.3,1.1,9.5l-14.1,2.5c-0.1-3-0.4-5.6-0.7-7.8
		c-0.3-2.2-0.9-4-1.8-5.3c-0.9-1.3-2.3-1.9-4.1-1.9c-1.9,0-3.4,0.9-4.3,2.6c-0.9,1.7-1.4,3.6-1.4,5.7c0,3.5,0.7,6.3,2,8.5
		c1.3,2.2,3.1,4.5,5.4,6.9l8.2,8.7c3.4,3.5,6.3,7.6,8.8,12.1c2.4,4.5,3.7,10.2,3.7,16.8c0,4.6-0.9,8.7-2.6,12.4
		c-1.7,3.7-4.2,6.6-7.3,8.7C30.9,99.2,27.2,100.2,23,100.2z"/>
	<path d="M61.9,98.9L46.4,1.2h14.3l9.6,67.5l9-67.5h14.9L78.9,98.9H61.9z"/>
	<path d="M108.6,98.9V16H96.1V1.2h41.4V16h-12.3v82.8H108.6z"/>
	<path d="M159.6,99.6c-4,0-7.1-0.7-9.4-2.2c-2.3-1.5-3.8-3.6-4.7-6.5c-0.9-2.8-1.3-6.2-1.3-10.2V41.1h-5.7V29.2h5.7V8.1h15.3v21.1
		h8.4v11.9h-8.4V79c0,2.2,0.5,3.7,1.4,4.6c0.9,0.9,2.2,1.4,3.8,1.4c0.8,0,1.6-0.1,2.3-0.2c0.7-0.1,1.4-0.2,2-0.3v14.2
		c-0.9,0.2-2.3,0.3-4,0.5C163.2,99.5,161.4,99.6,159.6,99.6z"/>
	<path d="M185,100.1c-2.3,0-4.3-0.7-5.9-2.2c-1.6-1.4-2.7-3.4-3.5-5.8c-0.7-2.4-1.1-5.1-1.1-8v-55h15.1v52.3c0,1.9,0.3,3.4,0.8,4.4
		c0.5,1,1.5,1.5,2.9,1.5c0.8,0,1.7-0.3,2.6-0.8c0.9-0.5,1.8-1.1,2.8-1.9V29.2h15.1v69.7h-15.1v-6.5c-2,2.3-4.2,4.2-6.5,5.6
		C189.9,99.4,187.5,100.1,185,100.1z"/>
	<path d="M249.6,100.1c-2.1,0-4.2-0.6-6.2-1.8c-2-1.2-3.9-2.8-5.7-4.7v5.3h-15.1V1.2h15.1v33.2c1.9-2,3.8-3.6,5.9-4.7
		c2.1-1.1,4.2-1.7,6.4-1.7c2.3,0,4.3,0.6,5.9,1.9c1.6,1.2,2.9,2.9,3.9,5c1,2.1,1.7,4.4,2.1,7c0.4,2.6,0.6,5.2,0.6,7.8v27.3
		c0,4.5-0.5,8.5-1.4,11.9c-0.9,3.5-2.4,6.2-4.3,8.2C255,99.1,252.6,100.1,249.6,100.1z M242.9,87.9c1.2,0,2.1-0.5,2.8-1.4
		c0.7-0.9,1.1-2.2,1.4-3.7c0.2-1.5,0.4-3.2,0.4-5.1V48.6c0-1.7-0.1-3.2-0.4-4.6c-0.3-1.4-0.7-2.5-1.4-3.3c-0.6-0.8-1.6-1.3-2.8-1.3
		c-0.9,0-1.8,0.3-2.7,0.8c-0.9,0.5-1.7,1.1-2.5,1.9v43.7c0.8,0.6,1.6,1.2,2.5,1.6C241.1,87.7,242,87.9,242.9,87.9z"/>
	<path d="M288.6,100.1c-4.3,0-7.8-0.9-10.7-2.8c-2.9-1.9-5-4.7-6.5-8.3c-1.5-3.7-2.2-8.1-2.2-13.2V52.3c0-5.3,0.7-9.7,2.2-13.3
		c1.5-3.6,3.7-6.3,6.6-8.2c2.9-1.9,6.5-2.8,10.6-2.8c4.4,0,8,1,10.7,2.9c2.7,1.9,4.8,4.7,6.1,8.4c1.3,3.7,2,8.2,2,13.5V65h-23.2
		v13.5c0,2,0.2,3.7,0.6,4.9c0.4,1.3,0.9,2.2,1.6,2.7c0.7,0.5,1.5,0.8,2.5,0.8c0.9,0,1.8-0.3,2.5-0.8c0.7-0.5,1.2-1.3,1.6-2.5
		c0.3-1.1,0.5-2.6,0.5-4.5v-6.6h14v5.8c0,7.1-1.6,12.5-4.8,16.2C299.2,98.2,294.6,100.1,288.6,100.1z M284.1,56.3h9.1v-6.9
		c0-2-0.2-3.6-0.5-4.9c-0.3-1.2-0.9-2.1-1.6-2.7c-0.7-0.5-1.6-0.8-2.7-0.8c-1,0-1.8,0.3-2.5,0.8c-0.6,0.6-1.1,1.5-1.5,3
		c-0.3,1.4-0.5,3.4-0.5,6V56.3z"/>
</g>
</svg>
