<?xml version="1.0" encoding="utf-8"?>
<!-- Generator: Adobe Illustrator 25.4.1, SVG Export Plug-In . SVG Version: 6.00 Build 0)  -->
<svg version="1.0" id="레이어_1" xmlns="http://www.w3.org/2000/svg" xmlns:xlink="http://www.w3.org/1999/xlink" x="0px"
	 y="0px" viewBox="0 0 18 18" style="enable-background:new 0 0 18 18;" xml:space="preserve">
<style type="text/css">
	.st0{fill:none;}
</style>
<image style="overflow:visible;opacity:0.13;" width="316" height="755" xlink:href="B98AFD24.jpg"  transform="matrix(1 0 0 1 -30 -152)">
</image>
<g>
	<polygon points="5,160.5 15.9,160.5 15.9,177.1 5,177.1 5,178.1 16.9,178.1 16.9,159.5 5,159.5 	"/>
	<polygon points="8.4,172.2 9.1,172.8 12.2,169 12.6,168.6 12.1,168 8.9,164.2 8.1,164.8 10.8,168 0,168 -0.5,168 -0.5,169 0,169 
		10.9,169 	"/>
</g>
<g>
	<g>
		<path class="st0" d="M97.8-121.5h-3v3h-1.5v-3h-3v-1.5h3v-3h1.5v3h3V-121.5z"/>
		<polygon class="st0" points="104.5,-118.9 104.5,-125.9 102,-123.8 102,-120.3 		"/>
	</g>
	<polygon points="93.3,-118.4 94.8,-118.4 94.8,-121.5 97.8,-121.5 97.8,-123 94.8,-123 94.8,-126 93.3,-126 93.3,-123 90.2,-123 
		90.2,-121.5 93.3,-121.5 	"/>
	<path d="M102-125.1v-3.9H86v14h16v-4.2l3.5,2.1v-10.9L102-125.1z M101-124.3v0.7v3.3v0.6v3.8H87v-12h14V-124.3z M104.5-118.9
		l-2.5-1.5v-3.5l2.5-2.1V-118.9z"/>
</g>
<g>
	<path d="M0,18h18V0H0V18z M6,7c0-1.7,1.3-3,3-3s3,1.3,3,3s-1.3,3-3,3S6,8.7,6,7z M8.7,11.4c5.5,0.4,6.9,4.2,7.2,5.6H1.5
		C1.8,15.6,3.2,11.8,8.7,11.4z M17,1v16h-0.1c-0.3-1.3-1.5-5.2-6.3-6.3C12,10,13,8.6,13,7c0-2.2-1.8-4-4-4S5,4.8,5,7
		c0,1.6,0.9,2.9,2.2,3.6c-3.7,0.7-5.5,3-6.2,4.8V1H17z"/>
</g>
</svg>
