<?xml version="1.0" encoding="utf-8"?>
<!-- Generator: Adobe Illustrator 25.4.1, SVG Export Plug-In . SVG Version: 6.00 Build 0)  -->
<svg version="1.1" id="레이어_1" xmlns="http://www.w3.org/2000/svg" xmlns:xlink="http://www.w3.org/1999/xlink" x="0px"
	 y="0px" viewBox="0 0 18 18" style="enable-background:new 0 0 18 18;" xml:space="preserve">
<style type="text/css">
	.st0{fill:none;stroke-width:1.2px;}
	.st1{fill:none;stroke:#000000;stroke-miterlimit:10;stroke-width:1.2px;}
</style>
<g>
	<polygon points="5,160.5 15.9,160.5 15.9,177.1 5,177.1 5,178.1 16.9,178.1 16.9,159.5 5,159.5 	"/>
	<polygon points="8.4,172.2 9.1,172.8 12.2,169 12.6,168.6 12.1,168 8.9,164.2 8.1,164.8 10.8,168 0,168 -0.5,168 -0.5,169 0,169 
		10.9,169 	"/>
</g>
<g>
	<g>
		<path class="st0" d="M97.8-121.5h-3v3h-1.5v-3h-3v-1.5h3v-3h1.5v3h3V-121.5z"/>
		<polygon class="st0" points="104.5,-118.9 104.5,-125.9 102,-123.8 102,-120.3 		"/>
	</g>
	<polygon points="93.3,-118.4 94.8,-118.4 94.8,-121.5 97.8,-121.5 97.8,-123 94.8,-123 94.8,-126 93.3,-126 93.3,-123 90.2,-123 
		90.2,-121.5 93.3,-121.5 	"/>
	<path d="M102-125.1v-3.9H86v14h16v-4.2l3.5,2.1V-128L102-125.1z M101-124.3v0.7v3.3v0.6v3.8H87v-12h14V-124.3z M104.5-118.9
		l-2.5-1.5v-3.5l2.5-2.1V-118.9z"/>
</g>
<g>
	<circle class="st1" cx="6.6" cy="6.6" r="6"/>
	<line class="st1" x1="10.7" y1="11.1" x2="17.6" y2="17.5"/>
</g>
</svg>
