<?xml version="1.0" encoding="utf-8"?>
<!-- Generator: Adobe Illustrator 25.4.1, SVG Export Plug-In . SVG Version: 6.00 Build 0)  -->
<svg version="1.0" id="레이어_1" xmlns="http://www.w3.org/2000/svg" xmlns:xlink="http://www.w3.org/1999/xlink" x="0px"
	 y="0px" viewBox="0 0 19.5 14" style="enable-background:new 0 0 19.5 14;" xml:space="preserve">
<style type="text/css">
	.st0{fill:none;}
</style>
<image style="overflow:visible;opacity:0.13;" width="316" height="755" xlink:href="B2461A23.jpg"  transform="matrix(1 0 0 1 -116 -23)">
</image>
<g>
	<polygon points="-81,289.5 -70.1,289.5 -70.1,306.1 -81,306.1 -81,307.1 -69.1,307.1 -69.1,288.5 -81,288.5 	"/>
	<polygon points="-77.6,301.2 -76.9,301.8 -73.8,298 -73.4,297.6 -73.9,297 -77.1,293.2 -77.9,293.8 -75.2,297 -86,297 -86.5,297 
		-86.5,298 -86,298 -75.1,298 	"/>
</g>
<g>
	<g>
		<path class="st0" d="M11.8,7.5h-3v3H7.3v-3h-3V6h3V3h1.5v3h3V7.5z"/>
		<polygon class="st0" points="18.5,10.1 18.5,3.1 16,5.2 16,8.7 		"/>
	</g>
	<polygon points="7.3,10.6 8.8,10.6 8.8,7.5 11.8,7.5 11.8,6 8.8,6 8.8,3 7.3,3 7.3,6 4.2,6 4.2,7.5 7.3,7.5 	"/>
	<path d="M16,3.9V0H0v14h16V9.8l3.5,2.1V0.9L16,3.9z M15,4.7v0.7v3.3v0.6V13H1V1h14V4.7z M18.5,10.1L16,8.7V5.2l2.5-2.1V10.1z"/>
</g>
<g>
	<path d="M-86,147h18v-18h-18V147z M-80,136c0-1.7,1.3-3,3-3s3,1.3,3,3s-1.3,3-3,3S-80,137.7-80,136z M-77.3,140.4
		c5.5,0.4,6.9,4.2,7.2,5.6h-14.5C-84.2,144.6-82.8,140.8-77.3,140.4z M-69,130v16h-0.1c-0.3-1.3-1.5-5.2-6.3-6.3
		c1.4-0.6,2.4-2,2.4-3.7c0-2.2-1.8-4-4-4s-4,1.8-4,4c0,1.6,0.9,2.9,2.2,3.6c-3.7,0.7-5.5,3-6.2,4.8V130H-69z"/>
</g>
</svg>
